<?xml version="1.0" encoding="utf-8"?>
<!-- Generator: Adobe Illustrator 26.5.0, SVG Export Plug-In . SVG Version: 6.00 Build 0)  -->
<svg version="1.1" id="Calque_1" xmlns="http://www.w3.org/2000/svg" xmlns:xlink="http://www.w3.org/1999/xlink" x="0px" y="0px"
	 viewBox="0 0 315.6 269.94" style="enable-background:new 0 0 315.6 269.94;" xml:space="preserve">
<style type="text/css">
	.st0{fill:#C6C6C6;stroke:#C6C6C6;stroke-width:2;}
	.st1{fill:#7A7A7A;stroke:#7A7A7A;stroke-width:2;}
	.st2{fill:#C6C6C6;}
	.st3{fill:#BCBBBB;stroke:#BCBBBB;stroke-width:2;}
	.st4{fill:#7A7A7A;}
	.st5{fill:#BCBBBB;stroke:#BCBBBB;stroke-width:1.7;}
	.st6{fill:#7A7A7A;stroke:#7A7A7A;stroke-width:1.7;}
	.st7{enable-background:new    ;}
	.st8{clip-path:url(#SVGID_00000106860567868866439690000005836752578705229201_);}
	.st9{clip-path:url(#SVGID_00000055684492866968015940000003430295072681135753_);}
	.st10{fill:#BCBBBB;}
	.st11{clip-path:url(#SVGID_00000037691962545804219330000014762640317404915343_);}
	.st12{fill:#BCBBBB;stroke:#BCBBBB;}
	.st13{fill:#7A7A7A;stroke:#7A7A7A;}
	.st14{fill:#1D1D1B;}
	.st15{fill:#333333;stroke:#333333;stroke-width:2;}
	.st16{fill:#818181;}
	.st17{fill:#CAC8C8;}
	.st18{fill:#1D1D1B;stroke:#FFFFFF;stroke-width:3;stroke-miterlimit:10;}
	.st19{clip-path:url(#SVGID_00000054949050895097943760000016033345519599440775_);}
	.st20{clip-path:url(#SVGID_00000131336175644957888310000001808764157126429587_);}
	.st21{clip-path:url(#SVGID_00000037694899619509539700000006686249602394631077_);}
	.st22{clip-path:url(#SVGID_00000101789754988901522000000011157962384787208610_);}
	.st23{fill:#2D2D2D;}
	.st24{clip-path:url(#SVGID_00000090289700193850889540000017754853557043740300_);}
	.st25{clip-path:url(#SVGID_00000161629083226835451630000006916274752026403981_);}
	.st26{clip-path:url(#SVGID_00000030477924026291901220000001190547227488556673_);}
	.st27{clip-path:url(#SVGID_00000124872442417770658220000004042429176770041275_);}
	.st28{fill:#333333;stroke:#333333;stroke-width:1.7;}
	.st29{fill:#333333;}
</style>
<g>
	<g>
		<rect x="36.74" y="67.38" class="st2" width="19.42" height="38.89"/>
		<path class="st2" d="M59.23,109.35H33.66V64.3h25.57V109.35z M39.81,103.2h13.27V70.46H39.81V103.2z"/>
	</g>
	<g>
		<rect x="45.26" y="47.93" class="st4" width="19.42" height="38.89"/>
		<path class="st4" d="M67.75,89.9H42.18V44.86h25.57V89.9z M48.33,83.75H61.6V51.01H48.33V83.75z"/>
	</g>
	<g>
		<rect x="259.44" y="67.38" class="st2" width="19.42" height="38.89"/>
		<path class="st2" d="M281.94,109.35h-25.57V64.3h25.57V109.35z M262.51,103.2h13.27V70.46h-13.27V103.2z"/>
	</g>
	<g>
		<rect x="250.92" y="47.93" class="st4" width="19.42" height="38.89"/>
		<path class="st4" d="M273.41,89.9h-25.57V44.86h25.57V89.9z M253.99,83.75h13.27V51.01h-13.27V83.75z"/>
	</g>
	<g>
		<path class="st2" d="M47.6,167.19v-58.31h39.65v58.31H47.6z M79.98,206.08v-38.89h29.35v38.89H79.98z M231.53,167.19v-58.31h36.55
			v58.31H231.53z M209.46,206.08v-38.89h26.24v38.89H209.46z M106.24,244.92v-38.84h25.6v38.84H106.24z M128.75,206.08v-38.89h19.42
			v38.89H128.75z M148.17,167.19v-58.31h19.47v58.31H148.17z M167.64,206.08v-38.89h19.42v38.89H167.64z M183.96,244.92v-38.84h25.5
			v38.84H183.96z"/>
	</g>
	<g>
		<path class="st4" d="M57.65,147.67V89.35h32.25v58.31H57.65z M79.98,186.56v-38.89h29.39v38.89H79.98z M235.69,147.67v38.89
			h-29.17v-38.89H235.69z M258.17,89.35v58.31h-30.12V89.35H258.17z M106.28,225.4v-38.84h25.6v38.84H106.28z M128.79,186.56v-38.89
			h19.42v38.89H128.79z M148.21,147.67V89.35h19.47v58.31H148.21z M167.68,186.56v-38.89h19.42v38.89H167.68z M183.99,225.4v-38.84
			h25.5v38.84H183.99z"/>
	</g>
	<g>
		<path class="st29" d="M51.05,66.98V28.09h19.42v38.89H51.05z M70.47,125.3V66.98h19.42v58.31H70.47z M89.89,164.19V125.3h19.47
			v38.89H89.89z M109.37,203.03v-38.84h19.42v38.84H109.37z M128.79,164.19V125.3h19.42v38.89H128.79z M148.21,125.3v-45h19.47v45
			H148.21z M167.68,164.19V125.3h19.42v38.89H167.68z M187.1,203.03v-38.84h19.42v38.84H187.1z M206.52,164.19V125.3h19.47v38.89
			H206.52z M225.99,125.3V66.98h19.42v58.31H225.99z M245.42,66.98V28.09h19.47v38.89H245.42z"/>
		<path class="st29" d="M209.6,206.11h-25.57v-38.84H164.6v-38.89h-13.32v38.89h-19.42v38.84h-25.57v-38.84H86.82v-38.89H67.4V70.06
			H47.98V25.01h25.57v38.89h19.42v58.31h19.47v38.89h13.27v-38.89h19.42v-45h25.62v45h19.43v38.89h13.27v-38.89h19.47V63.91h19.42
			V25.01h25.63v45.04h-19.47v58.31h-19.42v38.89H209.6V206.11z M190.18,199.96h13.27v-32.69h-13.27V199.96z M112.44,199.96h13.27
			v-32.69h-13.27V199.96z M209.6,161.11h13.32v-32.74H209.6V161.11z M184.02,161.11L184.02,161.11l0-32.74h-13.27v32.74H184.02z
			 M131.86,161.11h13.27v-32.74h-13.27V161.11z M92.97,161.11h13.32v-32.74H92.97V161.11z M229.07,122.22h13.27V70.06h-13.27V122.22
			z M151.28,122.22h13.32V83.38h-13.32V122.22z M73.55,122.22h13.27V70.06H73.55V122.22z M248.49,63.91h13.32V31.17h-13.32V63.91z
			 M67.4,63.91L67.4,63.91l0-32.74H54.13v32.74H67.4z"/>
	</g>
</g>
</svg>
